<?xml version="1.0" encoding="UTF-8"?><svg id="Layer_1" xmlns="http://www.w3.org/2000/svg" xmlns:xlink="http://www.w3.org/1999/xlink" viewBox="0 0 84 84"><defs><style>.cls-1{fill:#fc6736;}.cls-1,.cls-2,.cls-3,.cls-4{stroke-width:0px;}.cls-2{fill:url(#linear-gradient);}.cls-3{fill:#0c2d57;}.cls-4{fill:#efecec;}</style><linearGradient id="linear-gradient" x1="35.26" y1="32.28" x2="126.43" y2="76.34" gradientUnits="userSpaceOnUse"><stop offset=".01" stop-color="#fc6736"/><stop offset=".02" stop-color="#fb6939"/><stop offset=".08" stop-color="#f7875f"/><stop offset=".14" stop-color="#f39d7b"/><stop offset=".2" stop-color="#f1aa8c"/><stop offset=".24" stop-color="#f1af93"/><stop offset=".45" stop-color="#9fadc0"/><stop offset=".7" stop-color="#97a6ac"/><stop offset="1" stop-color="#487691"/></linearGradient></defs><path class="cls-4" d="M11.52,24.57h15c8.84,0,15.48,5.29,15.48,15.35s-6.65,15.26-15.48,15.26h-15v-30.62ZM25.42,47.31c4.81,0,6.91-2.89,6.91-7.44s-2.1-7.44-7.26-7.44h-3.54v14.87h3.89Z"/><path class="cls-2" d="M50.24,26.38h16.71l7.7,30.62h-10.02l-1.18-4.81h-9.71l-1.18,4.81h-10.02l7.7-30.62ZM55.53,44.67h6.08l-2.54-10.41h-1.01l-2.54,10.41Z"/><rect class="cls-1" x="-1" y="-1" width="99" height="17"/><rect class="cls-3" x="-1" y="67" width="99" height="17"/></svg>